<svg xmlns="http://www.w3.org/2000/svg" viewBox="0 0 1024 1024">
  <defs>
    <linearGradient id="bg" x1="120" y1="80" x2="900" y2="950" gradientUnits="userSpaceOnUse">
      <stop offset="0" stop-color="#21362a"/>
      <stop offset="0.55" stop-color="#2d4d3a"/>
      <stop offset="1" stop-color="#101315"/>
    </linearGradient>
    <linearGradient id="coin" x1="260" y1="230" x2="760" y2="760" gradientUnits="userSpaceOnUse">
      <stop offset="0" stop-color="#ffe19a"/>
      <stop offset="0.52" stop-color="#f5b642"/>
      <stop offset="1" stop-color="#bc7622"/>
    </linearGradient>
    <filter id="shadow" x="-20%" y="-20%" width="140%" height="140%">
      <feDropShadow dx="0" dy="26" stdDeviation="34" flood-color="#000000" flood-opacity="0.35"/>
    </filter>
  </defs>
  <rect width="1024" height="1024" rx="228" fill="url(#bg)"/>
  <circle cx="512" cy="512" r="286" fill="#ffffff" opacity="0.08"/>
  <g filter="url(#shadow)">
    <rect x="238" y="304" width="548" height="416" rx="96" fill="#f7fbf4" opacity="0.94"/>
    <circle cx="512" cy="512" r="158" fill="url(#coin)"/>
    <circle cx="512" cy="512" r="116" fill="none" stroke="#fff0bb" stroke-width="34" opacity="0.85"/>
    <path d="M512 386v252M430 458c30-38 134-42 162 9 32 59-44 85-84 96-52 14-87 28-89 66-2 44 58 67 128 47 28-8 54-24 71-45"
      fill="none" stroke="#6f4213" stroke-width="54" stroke-linecap="round" stroke-linejoin="round" opacity="0.58"/>
  </g>
</svg>
